<?xml version="1.0" encoding="UTF-8"?>
<svg xmlns="http://www.w3.org/2000/svg" version="1.1" viewBox="0 0 200 200">
  <defs>
    <style>
      .cls-1 {
        fill: #EE5D0F;
      }
    </style>
  </defs>
  <!-- Generator: Adobe Illustrator 28.7.1, SVG Export Plug-In . SVG Version: 1.2.0 Build 142)  -->
  <g>
    <g id="Layer_1">
      <path class="cls-1" d="M189.72,91.43c-.13-.35-.2-.75-.2-1.12-.01-1.64-.48-3.18-.84-4.76-.38-1.67-.83-3.34-.7-5.07.31-4.15-.55-8.13-1.67-12.08-.62-2.2-1.56-4.29-2.34-6.43-1.04-2.87-2.3-5.63-3.59-8.39-.48-1.03-1.01-2.05-1.6-3.03-.93-1.56-1.69-3.19-2.38-4.87-.53-1.32-.99-2.68-1.94-3.78-.6-1.6-1.86-2.86-2.32-4.53-.21-.78-.76-1.31-1.33-1.81-.72-.63-1.54-1.11-2.42-1.49-1.22-.53-2.42-1.11-3.64-1.63-.62-.26-1.2-.57-1.69-1.04-1.77-1.74-3.76-3.2-5.68-4.77-1.7-1.39-3.51-2.57-5.39-3.7-3.93-2.37-8.2-3.98-12.38-5.8-.34-.15-.74-.18-1.1-.29-3.74-1.11-7.49-2.25-10.88-4.21-2-1.16-4.1-1.98-6.28-2.66-.82-.26-1.64-.5-2.43-.81-1.97-.78-4.04-1.1-6.11-1.37-1.16-.15-2.23-.45-3.27-.92-3.12-1.42-6.24-2.82-9.34-4.27-1.08-.51-2.13-.76-3.3-.42-.45.13-.93.22-1.4.24-2.76.12-5.5.45-8.24.74-2.28.24-4.52.55-6.74,1.14-1.11.29-2.16.76-3.27,1-3.96.86-7.45,2.83-11.06,4.52-1.11.52-2.11,1.29-3.19,1.89-4.17,2.28-8.28,4.69-12.32,7.19-1.7,1.05-3.38,2.12-5.19,2.99-.68.33-1.35.73-1.93,1.22-1.43,1.18-3.06,1.88-4.85,2.31-.36.09-.76.18-1.06.39-.94.67-1.79,1.46-2.24,2.54-.8,1.93-1.98,3.68-2.57,5.71-.45,1.55-1.07,3.04-1.94,4.43-.25.4-.38.87-.53,1.32-.49,1.44-.94,2.89-1.45,4.32-.19.54-.42,1.06-.43,1.64-.02,1.54-.5,3-.81,4.49-.15.74-.41,1.5-.37,2.24.12,2.5-.51,4.91-.64,7.38-.1,1.8-.27,3.63-.69,5.37-.85,3.51-1.89,6.97-2.85,10.45-.03.09-.07.17-.12.26-1.52,3.17-2.54,6.57-4.38,9.59-.24.4-.38.87-.58,1.3-.88,1.9-1.68,3.84-2.65,5.69-1.74,3.3-3.06,6.75-4.03,10.34-.48,1.75-.65,3.5-.33,5.34.78,4.47.25,8.94-.62,13.33-.59,3.01-.96,6-.82,9.06.04.86.08,1.71.05,2.57-.13,3.36.72,6.6,1.24,9.88.51,1.05.65,2.18.66,3.33,0,.99.39,1.86,1.03,2.6.56.65,1.16,1.26,1.72,1.9,1.01,1.14,2.09,2.22,2.99,3.44,1.52,2.07,2.91,4.23,4.37,6.35.92,1.33,1.92,2.6,3.11,3.72.62.58,1.16,1.25,1.74,1.88.58.63,1.13,1.28,1.74,1.88,2.16,2.14,4.37,4.24,6.41,6.51.63.71,1.38,1.31,2.08,1.95.49.45,1.06.83,1.48,1.34.69.82,1.54,1.39,2.47,1.88,4.05,2.11,8.09,4.23,12.14,6.34.59.31,1.2.58,1.83.79,1.9.63,3.79,1.28,5.71,1.82,3.57,1,7.09,2.17,10.52,3.59,2.99,1.24,6.03,2.33,9.16,3.17,3.22.87,6.47,1.61,9.8,1.85,3.13.22,6.27.35,9.41.52,0,.03,0,.05,0,.08.86,0,1.71-.01,2.57,0,3.53.06,7.04-.15,10.55-.48,2.68-.25,5.25-.82,7.72-1.89,2.62-1.14,5.24-2.26,7.84-3.43,3.14-1.41,6.4-2.44,9.74-3.21,4.36-1.01,4.37-.98,7.51-3.71.14-.12.25-.29.4-.41.3-.23.59-.51.93-.63,1.39-.47,2.49-1.36,3.61-2.25,1.27-1.01,2.55-1.99,3.86-2.94,3.96-2.88,7.13-6.55,10.33-10.2.12-.14.22-.31.32-.47,1.57-2.38,3.16-4.75,4.69-7.15.71-1.12,1.42-2.28,1.89-3.5.53-1.37,1.27-2.56,2.34-3.52,1.36-1.22,2.46-2.65,3.51-4.12,1.21-1.7,2.44-3.41,3.49-5.21,1.53-2.63,2.68-5.45,3.87-8.25.18-.44.33-.89.5-1.34.95-2.4,1.32-4.95,1.98-7.43.3-1.12.34-2.25.39-3.39,0-.19.04-.38.08-.57.37-1.67.74-3.33,1.12-5,.46-2.03,1.26-4,.97-6.15-.02-.18.06-.37.1-.56.35-1.78.42-3.59.49-5.4.1-2.95.27-5.89.3-8.84.02-2.18.08-4.38-.67-6.5ZM173.1,77.91c-.42,1.16-.89,2.3-1.41,3.42-.15.32-.5.57-.8.79-1.16.84-2.24,1.71-3.16,2.85-.76.94-1.87,1.59-2.83,2.37-.29.24-.66.44-.85.75-1.03,1.71-2.7,2.93-3.64,4.71-.21.41-.6.73-.91,1.08-.06.07-.15.12-.23.17-.95.53-1.34,1.61-2.16,2.25-.82.64-1.73,1.18-2.56,1.8-.53.4-.99.87-1.31,1.48-.3.58-.7,1.12-1.06,1.68.22.68.82,1.02,1.32,1.45.58.49,1.17.97,1.8,1.4.58.4.86,1,1.26,1.53.39.52.11,1.3.82,1.74.45.28.71.87,1.03,1.33.48.69.84,1.52,1.46,2.05.54.48,1.36.63,2.05.94,1.01.46,1.73,1.27,2.05,2.27.27.85.71,1.52,1.2,2.23.42.62.57,1.41.98,2.04.41.63,1.06,1.1,1.49,1.71.49.7.93,1.45,1.28,2.22.69,1.53.87,3.09.16,4.69-.27.6-.45,1.25-.6,1.89-.2.87-.63,1.64-1.27,2.19-.93.8-1.77,1.72-2.87,2.34-.99.56-1.89,1.28-2.84,1.91-.79.52-1.5,1.14-2.47,1.37-.52.13-.98.56-1.45.88-1.13.77-2.34,1.2-3.73,1.26-2.38.11-4.75.33-7.12.48-1.14.07-2.26.21-3.39.42-1.4.27-2.83.38-4.25.47-1.76.1-3.38-.37-4.82-1.44-.84-.63-1.72-1.18-2.59-1.77-.57-.39-1.2-.54-1.9-.49-.34.02-.68.18-.66.38.02.18.03.4.13.53.69.79,1.4,1.55,2.22,2.45,0,.42.08.99.01,1.55-.11.86-.13,1.7.11,2.54.69,2.37.27,4.7-.17,7.02-.85.95-1.68,1.87-2.49,2.77-.04.32-.14.6-.11.87.13,1.09-.06,2.08-.82,2.92-.55.61-.67,1.3-.5,2.12.23,1.1-.15,2.06-1,2.82-.21.19-.46.36-.61.6-.73,1.16-2.08,1.68-2.85,2.77-.72,1.01-1.37,2.06-2.08,3.07-.33.46-.71.9-1.11,1.3-1.01.99-2.54,1.3-3.29,2.66-.67,1.2-1.98,1.75-3.03,2.56-1.05.81-2.23,1.47-2.86,2.72-1.02.85-1.98,1.78-3.18,2.38-.43.21-.85.42-1.27.64-2.23,1.17-4.42.96-6.53-.26-1.23-.72-2.33-1.64-3.35-2.64-1.43-1.4-2.87-2.77-4.3-4.17-.9-.88-1.97-1.49-3.15-1.9-1.64-.57-3.14-1.37-4.47-2.48-.8-.67-1.55-1.4-2.31-2.12-.41-.39-.74-.9-1.2-1.21-1.69-1.16-2.73-2.89-3.95-4.45-.29-.37-.48-.82-.69-1.24-.34-.68-.67-1.37-.99-2.06-.48-1.03-.88-2.07-1.12-3.21-.27-1.29-.74-2.54-.88-3.87-.17-1.54-.1-3.05.33-4.52.32-1.09.66-2.2,1.17-3.21.91-1.77,1.78-3.57,2.89-5.24.73-1.11,1.44-2.23,1.99-3.45.39-.86,1.03-1.59,1.54-2.4.56-.88,1.12-1.76,1.65-2.66.25-.41-.1-.98-.59-1.03-1.52-.13-3.04-.12-4.56,0-.78.06-1.5.29-2.16.66-.58.32-1.13.7-1.67,1.09-1.74,1.23-3.67,1.99-5.72,2.5-.55.14-1.12.24-1.69.25-1.9.03-3.81.01-5.71,0-.38,0-.77,0-1.14-.09-1.93-.49-3.89-.94-5.79-1.54-2.17-.69-4.34-1.36-6.57-1.84-1.29-.28-2.59-.57-3.75-1.31-.55-.35-1.2-.57-1.84-.74-1.75-.47-3.43-1.13-5.02-2.02-.5-.28-1.01-.55-1.55-.72-1.81-.55-3.11-1.79-4.36-3.11-1.52-1.61-2.51-3.57-3.49-5.52-.45-.89-.48-1.89-.15-2.79.5-1.38.61-2.75.54-4.2-.07-1.34.51-2.6.92-3.86.14-.42.51-.8.84-1.13.87-.88,1.73-1.74,2.48-2.74.68-.92,1.62-1.61,2.68-2.08,1.12-.51,2.22-1.09,3.42-1.41,1.11-.3,2.12-.79,2.88-1.74.29-.36.73-.6,1.13-.84.49-.29,1.02-.52,1.51-.8.99-.57,1.96-1.17,2.67-2.09.9-1.16,2.17-1.5,3.55-1.46.75.02,1.5.19,2.27.3.24-.18.5-.31.67-.51.59-.69,1.34-1.03,2.22-1.17.47-.07.95-.13,1.38-.29,1.44-.54,2.9-.88,4.46-.78.36.02.6-.5.42-.85-.57-1.09-1.14-2.18-1.66-3.3-.86-1.85-1.32-3.72-1.32-5.76,0-.93-.23-1.89-.78-2.69-.51-.74-.74-1.54-.76-2.41-.02-.88-.26-1.68-.69-2.44-.25-.44-.2-.91-.06-1.38.22-.74.55-1.41,1.02-2.03.28-.37.69-.66.8-1.14,0-.11.03-.21,0-.29-.71-1.51-.48-3,.28-4.37.45-.8.62-1.56.57-2.44-.03-.46.03-.94.12-1.4.1-.49.08-.96-.21-1.36-.59-.82-.71-1.72-.64-2.71.08-1.23.23-2.5.02-3.7-.32-1.83-.07-3.6.1-5.39.06-.66.12-1.37.4-1.95.5-1.05.69-2.17.97-3.26.22-.85.55-1.63,1.12-2.29.6-.68.82-1.46.73-2.39.64-.22,1.28-.39,1.88-.66.69-.32,1.34-.72,2.01-1.09.41-.23.82-.47,1.23-.72,1.15-.68,2.35-.73,3.57-.28,1.25.46,2.49.95,3.51,1.85.21.19.46.34.67.49.21.03.4.08.59.08,2.89-.12,5.1,1.25,7.03,3.22.33.34.64.71,1.01,1,.21.16.53.24.8.25.28.01.55-.13.84-.16,1.14-.14,2.23-.05,3.34.4,1.4.56,2.77,1.24,4.33,1.39.44.04.91.33,1.25.64.49.44,1,.93,1.28,1.5.86,1.77,2.02,3.21,3.83,4.08,2.34,1.81,3.98,4.07,4.53,7.02.12.65.19,1.31.28,1.98.61.62,1.22,1.22,1.79,1.85.52.57.84,1.23,1.06,1.99.43,1.49.48,3.01.4,4.53-.05.88.13,1.67.33,2.51.45,1.85.8,3.72,1.08,5.6.22,1.51.53,2.99,1.13,4.48.27-.1.63-.11.74-.28.46-.72.92-1.43,1.53-2.05.39-.39.69-.91.93-1.42.45-.96,1.02-1.81,1.77-2.57.74-.74,1.41-1.55,2.11-2.33.64-.71,1.38-1.27,2.2-1.79,1.6-1.02,3.21-2.02,4.6-3.33.7-.66,1.48-1.21,2.46-1.36.69-.11,1.26-.45,1.76-.89.51-.45,1.01-.84,1.71-.96.37-.07.71-.27,1.06-.4.89-.32,1.49-1.25,2.52-1.25.97,0,1.88-.28,2.81-.43.35-.05.75.06,1.1.16.27.08.5.27.76.39.7.32,1.4.51,2.2.31.63-.16,1.31-.12,2.02-.17.94.63,1.85,1.32,2.83,1.9,2.12,1.27,4.26,2.5,6.42,3.7.83.46,1.76.72,2.6,1.16,2.02,1.05,4.02,2.15,6.03,3.22,1.26.67,2.47,1.42,3.53,2.4.35.32.75.58,1.17.8.69.36,1.26.83,1.66,1.52.13.22.42.43.67.46,1.93.27,3.58,1.23,5.22,2.19.49.29,1,.55,1.45.91.19.15.38.55.31.73Z"/>
    </g>
  </g>
</svg>